<svg  viewBox="0 0 512 512" fill="none" xmlns="http://www.w3.org/2000/svg"><path d="M70 134.251c0-18.911 15.33-34.242 34.242-34.242h250.353c18.912 0 34.242 15.331 34.242 34.242v251.507c0 18.911-15.33 34.242-34.242 34.242H104.242C85.331 420 70 404.669 70 385.758V134.251Z" fill="url(#a)"/><path d="M70 134.251c0-18.911 15.33-34.242 34.242-34.242h250.353c18.912 0 34.242 15.331 34.242 34.242v251.507c0 18.911-15.33 34.242-34.242 34.242H104.242C85.331 420 70 404.669 70 385.758V134.251Z" fill="url(#b)"/><path d="M70 134.251c0-18.911 15.33-34.242 34.242-34.242h250.353c18.912 0 34.242 15.331 34.242 34.242v251.507c0 18.911-15.33 34.242-34.242 34.242H104.242C85.331 420 70 404.669 70 385.758V134.251Z" fill="url(#c)"/><path d="M70 134.251c0-18.911 15.33-34.242 34.242-34.242h250.353c18.912 0 34.242 15.331 34.242 34.242v251.507c0 18.911-15.33 34.242-34.242 34.242H104.242C85.331 420 70 404.669 70 385.758V134.251Z" fill="url(#d)"/><path d="M70 134.251c0-18.911 15.33-34.242 34.242-34.242h250.353c18.912 0 34.242 15.331 34.242 34.242v251.507c0 18.911-15.33 34.242-34.242 34.242H104.242C85.331 420 70 404.669 70 385.758V134.251Z" fill="url(#e)"/><path d="M70 134.251c0-18.911 15.33-34.242 34.242-34.242h250.353c18.912 0 34.242 15.331 34.242 34.242v251.507c0 18.911-15.33 34.242-34.242 34.242H104.242C85.331 420 70 404.669 70 385.758V134.251Z" fill="url(#f)"/><path d="M70 134.251c0-18.911 15.33-34.242 34.242-34.242h250.353c18.912 0 34.242 15.331 34.242 34.242v251.507c0 18.911-15.33 34.242-34.242 34.242H104.242C85.331 420 70 404.669 70 385.758V134.251Z" fill="url(#g)"/><path d="M70 134.251c0-18.911 15.33-34.242 34.242-34.242h250.353c18.912 0 34.242 15.331 34.242 34.242v251.507c0 18.911-15.33 34.242-34.242 34.242H104.242C85.331 420 70 404.669 70 385.758V134.251Z" fill="url(#h)"/><path d="M70 134.251c0-18.911 15.33-34.242 34.242-34.242h250.353c18.912 0 34.242 15.331 34.242 34.242v251.507c0 18.911-15.33 34.242-34.242 34.242H104.242C85.331 420 70 404.669 70 385.758V134.251Z" fill="url(#i)"/><path d="M362.485 393.302a20.8 20.8 0 0 1-1.359 1.474c-9.253 9.258-24.262 9.258-33.515 0l-43.229-43.239c-9.253-9.253-9.253-24.252 0-33.51 9.253-9.253 24.242-9.253 33.496 0l19.432 19.433c2.256 2.255 6.003 1.919 7.821-.701l51.709-74.516a23.614 23.614 0 0 1 14.409-9.643 23.686 23.686 0 0 1 18.567 3.682c10.752 7.46 13.41 22.219 5.956 32.971l-68.85 99.232a23.492 23.492 0 0 1-4.437 4.817Z" fill="#4ECBFF"/><path d="M362.485 393.302a20.8 20.8 0 0 1-1.359 1.474c-9.253 9.258-24.262 9.258-33.515 0l-43.229-43.239c-9.253-9.253-9.253-24.252 0-33.51 9.253-9.253 24.242-9.253 33.496 0l19.432 19.433c2.256 2.255 6.003 1.919 7.821-.701l51.709-74.516a23.614 23.614 0 0 1 14.409-9.643 23.686 23.686 0 0 1 18.567 3.682c10.752 7.46 13.41 22.219 5.956 32.971l-68.85 99.232a23.492 23.492 0 0 1-4.437 4.817Z" fill="url(#j)"/><path d="M362.485 393.302a20.8 20.8 0 0 1-1.359 1.474c-9.253 9.258-24.262 9.258-33.515 0l-43.229-43.239c-9.253-9.253-9.253-24.252 0-33.51 9.253-9.253 24.242-9.253 33.496 0l19.432 19.433c2.256 2.255 6.003 1.919 7.821-.701l51.709-74.516a23.614 23.614 0 0 1 14.409-9.643 23.686 23.686 0 0 1 18.567 3.682c10.752 7.46 13.41 22.219 5.956 32.971l-68.85 99.232a23.492 23.492 0 0 1-4.437 4.817Z" fill="url(#k)"/><path d="M362.485 393.302a20.8 20.8 0 0 1-1.359 1.474c-9.253 9.258-24.262 9.258-33.515 0l-43.229-43.239c-9.253-9.253-9.253-24.252 0-33.51 9.253-9.253 24.242-9.253 33.496 0l19.432 19.433c2.256 2.255 6.003 1.919 7.821-.701l51.709-74.516a23.614 23.614 0 0 1 14.409-9.643 23.686 23.686 0 0 1 18.567 3.682c10.752 7.46 13.41 22.219 5.956 32.971l-68.85 99.232a23.492 23.492 0 0 1-4.437 4.817Z" fill="url(#l)"/><path d="M362.485 393.302a20.8 20.8 0 0 1-1.359 1.474c-9.253 9.258-24.262 9.258-33.515 0l-43.229-43.239c-9.253-9.253-9.253-24.252 0-33.51 9.253-9.253 24.242-9.253 33.496 0l19.432 19.433c2.256 2.255 6.003 1.919 7.821-.701l51.709-74.516a23.614 23.614 0 0 1 14.409-9.643 23.686 23.686 0 0 1 18.567 3.682c10.752 7.46 13.41 22.219 5.956 32.971l-68.85 99.232a23.492 23.492 0 0 1-4.437 4.817Z" fill="url(#m)" fill-opacity=".62"/><path d="M362.485 393.302a20.8 20.8 0 0 1-1.359 1.474c-9.253 9.258-24.262 9.258-33.515 0l-43.229-43.239c-9.253-9.253-9.253-24.252 0-33.51 9.253-9.253 24.242-9.253 33.496 0l19.432 19.433c2.256 2.255 6.003 1.919 7.821-.701l51.709-74.516a23.614 23.614 0 0 1 14.409-9.643 23.686 23.686 0 0 1 18.567 3.682c10.752 7.46 13.41 22.219 5.956 32.971l-68.85 99.232a23.492 23.492 0 0 1-4.437 4.817Z" fill="url(#n)" fill-opacity=".8"/><path d="M354.076 100.009H104.769c-19.135 0-34.646 15.511-34.646 34.646v27.106h318.599v-27.106c0-19.135-15.511-34.646-34.646-34.646Z" fill="url(#o)"/><path d="M354.076 100.009H104.769c-19.135 0-34.646 15.511-34.646 34.646v27.106h318.599v-27.106c0-19.135-15.511-34.646-34.646-34.646Z" fill="url(#p)" fill-opacity=".6"/><circle cx="128.307" cy="222.011" r="32.299" fill="url(#q)"/><circle cx="128.307" cy="222.011" r="32.299" fill="url(#r)" fill-opacity=".8"/><circle cx="127.261" cy="323.665" r="32.299" fill="url(#s)"/><circle cx="229.946" cy="323.665" r="32.299" fill="url(#t)"/><circle cx="229.946" cy="222.011" r="32.299" fill="url(#u)"/><circle cx="229.946" cy="222.011" r="32.299" fill="url(#v)" fill-opacity=".8"/><circle cx="331.585" cy="222.011" r="32.299" fill="url(#w)"/><circle cx="107" cy="225.548" r="3.5" fill="#96CEC5"/><circle cx="241.5" cy="244.298" r="3.5" fill="#FFE195"/><circle cx="111.25" cy="212.798" r="2" fill="#96CEC5"/><circle cx="254" cy="233.048" r="2" fill="#FFE195"/><circle cx="243" cy="216.798" r="2" fill="#FFE195"/><circle cx="128.307" cy="242.798" r="2" fill="#96CEC5"/><defs><radialGradient id="b" cx="0" cy="0" r="1" gradientUnits="userSpaceOnUse" gradientTransform="matrix(304.61634 2.54785 -.77764 92.97365 220.534 136.688)"><stop offset=".427" stop-color="#C4C4C4"/><stop offset=".777" stop-color="#E8E8E8" stop-opacity="0"/></radialGradient><radialGradient id="c" cx="0" cy="0" r="1" gradientUnits="userSpaceOnUse" gradientTransform="matrix(-28.3834 60.63888 -40.39941 -18.90985 224.589 237.583)"><stop offset=".592" stop-color="#C7C7C7"/><stop offset=".777" stop-color="#E8E8E8" stop-opacity="0"/></radialGradient><radialGradient id="d" cx="0" cy="0" r="1" gradientUnits="userSpaceOnUse" gradientTransform="rotate(130.19 106.81 268.969) scale(97.3909 33.2204)"><stop offset=".592" stop-color="#C7C7C7"/><stop offset=".777" stop-color="#E8E8E8" stop-opacity="0"/></radialGradient><radialGradient id="e" cx="0" cy="0" r="1" gradientUnits="userSpaceOnUse" gradientTransform="matrix(50.6849 33.63163 -16.28089 24.53628 317.342 381.792)"><stop offset=".554" stop-color="#C7C7C7"/><stop offset="1" stop-color="#E8E8E8" stop-opacity="0"/></radialGradient><radialGradient id="f" cx="0" cy="0" r="1" gradientUnits="userSpaceOnUse" gradientTransform="matrix(-30.9182 52.99506 -35.33496 -20.615 326.973 241.15)"><stop offset=".592" stop-color="#C7C7C7"/><stop offset=".777" stop-color="#E8E8E8" stop-opacity="0"/></radialGradient><radialGradient id="g" cx="0" cy="0" r="1" gradientUnits="userSpaceOnUse" gradientTransform="matrix(-27.37015 56.05256 -37.34893 -18.23728 123.219 239.112)"><stop offset=".592" stop-color="#BAC9C8"/><stop offset=".777" stop-color="#E1E8EA" stop-opacity="0"/></radialGradient><radialGradient id="h" cx="0" cy="0" r="1" gradientUnits="userSpaceOnUse" gradientTransform="matrix(-28.38356 56.56226 -37.69208 -18.9143 122.712 336.949)"><stop offset=".592" stop-color="#AFC2C2"/><stop offset=".777" stop-color="#D2EBED" stop-opacity="0"/></radialGradient><radialGradient id="i" cx="0" cy="0" r="1" gradientUnits="userSpaceOnUse" gradientTransform="rotate(120.306 14.484 236.657) scale(57.2522 38.1737)"><stop offset=".592" stop-color="#AFC1C2"/><stop offset=".777" stop-color="#E1E8EA" stop-opacity="0"/></radialGradient><radialGradient id="m" cx="0" cy="0" r="1" gradientUnits="userSpaceOnUse" gradientTransform="matrix(27.74999 25.99997 -14.84074 15.83964 320.25 320.548)"><stop stop-color="#fff"/><stop offset="1" stop-color="#fff" stop-opacity="0"/></radialGradient><radialGradient id="n" cx="0" cy="0" r="1" gradientUnits="userSpaceOnUse" gradientTransform="matrix(-29.33882 36.68246 -14.28556 -11.42566 391.702 282.501)"><stop stop-color="#BCF2FF"/><stop offset=".541" stop-color="#BCF2FF" stop-opacity=".458"/><stop offset="1" stop-color="#BCF2FF" stop-opacity="0"/></radialGradient><radialGradient id="o" cx="0" cy="0" r="1" gradientUnits="userSpaceOnUse" gradientTransform="matrix(-334.52056 9.89912 -9.55035 -322.73472 393.37 100.009)"><stop offset=".095" stop-color="#A0D8FF"/><stop offset=".405" stop-color="#0599FF"/><stop offset=".51" stop-color="#379FFB"/><stop offset=".896" stop-color="#F7C9FF"/></radialGradient><radialGradient id="q" cx="0" cy="0" r="1" gradientUnits="userSpaceOnUse" gradientTransform="rotate(108.435 -7.466 152.045) scale(59.3784)"><stop stop-color="#FFD6F7"/><stop offset=".25" stop-color="#F7B4E9"/><stop offset=".645" stop-color="#E462B1"/><stop offset="1" stop-color="#F6B4E9"/></radialGradient><radialGradient id="r" cx="0" cy="0" r="1" gradientUnits="userSpaceOnUse" gradientTransform="rotate(97.815 -32.657 166.955) scale(57.3342)"><stop offset=".446" stop-color="#fff" stop-opacity="0"/><stop offset=".841" stop-color="#fff"/></radialGradient><radialGradient id="s" cx="0" cy="0" r="1" gradientUnits="userSpaceOnUse" gradientTransform="rotate(108.435 -44.623 202.495) scale(59.3784)"><stop stop-color="#fff"/><stop offset=".25" stop-color="#FFEFDA"/><stop offset=".645" stop-color="#C9B08F"/><stop offset=".832" stop-color="#E2D5C3"/></radialGradient><radialGradient id="t" cx="0" cy="0" r="1" gradientUnits="userSpaceOnUse" gradientTransform="rotate(108.435 6.72 239.5) scale(59.3784)"><stop stop-color="#fff"/><stop offset=".25" stop-color="#FFEFDA"/><stop offset=".645" stop-color="#C9B08F"/><stop offset=".832" stop-color="#E2D5C3"/></radialGradient><radialGradient id="u" cx="0" cy="0" r="1" gradientUnits="userSpaceOnUse" gradientTransform="rotate(108.435 43.354 188.674) scale(59.3784)"><stop stop-color="#F1FFB7"/><stop offset=".25" stop-color="#B9DC4E"/><stop offset=".645" stop-color="#6FB12F"/><stop offset="1" stop-color="#B9DC4E"/></radialGradient><radialGradient id="v" cx="0" cy="0" r="1" gradientUnits="userSpaceOnUse" gradientTransform="rotate(97.815 18.163 211.276) scale(57.3342)"><stop offset=".446" stop-color="#fff" stop-opacity="0"/><stop offset=".841" stop-color="#fff"/></radialGradient><radialGradient id="w" cx="0" cy="0" r="1" gradientUnits="userSpaceOnUse" gradientTransform="rotate(108.435 94.173 225.302) scale(59.3784)"><stop stop-color="#fff"/><stop offset=".25" stop-color="#FFEFDA"/><stop offset=".645" stop-color="#C9B08F"/><stop offset=".832" stop-color="#E2D5C3"/></radialGradient><linearGradient id="a" x1="369.514" y1="79.756" x2="14.138" y2="615.781" gradientUnits="userSpaceOnUse"><stop offset=".395" stop-color="#E7E7E7"/><stop offset=".853" stop-color="#C9F5FF"/></linearGradient><linearGradient id="j" x1="310.538" y1="387.161" x2="344.301" y2="352.546" gradientUnits="userSpaceOnUse"><stop stop-color="#4ECBFF"/><stop offset=".276" stop-color="#0070DB"/><stop offset=".529" stop-color="#0083F5" stop-opacity=".315"/><stop offset=".773" stop-color="#4ECBFF" stop-opacity="0"/></linearGradient><linearGradient id="k" x1="281.269" y1="337.95" x2="301.713" y2="347.656" gradientUnits="userSpaceOnUse"><stop stop-color="#007EEC"/><stop offset="1" stop-color="#2F9EFF" stop-opacity="0"/></linearGradient><linearGradient id="l" x1="372.74" y1="373.367" x2="345.894" y2="354.52" gradientUnits="userSpaceOnUse"><stop stop-color="#0070DB"/><stop offset=".484" stop-color="#0083F5" stop-opacity=".429"/><stop offset=".593" stop-color="#0083F5" stop-opacity=".237"/><stop offset="1" stop-color="#4ECBFF" stop-opacity="0"/></linearGradient><linearGradient id="p" x1="229.423" y1="100.009" x2="229.423" y2="161.761" gradientUnits="userSpaceOnUse"><stop stop-color="#fff"/><stop offset=".107" stop-color="#fff" stop-opacity="0"/><stop offset=".903" stop-color="#5381A3" stop-opacity="0"/><stop offset="1" stop-color="#5381A3"/></linearGradient></defs></svg>